<!DOCTYPE svg PUBLIC "-//W3C//DTD SVG 1.1//EN" "http://www.w3.org/Graphics/SVG/1.1/DTD/svg11.dtd">
<!-- Uploaded to: SVG Repo, www.svgrepo.com, Transformed by: SVG Repo Mixer Tools -->
<svg width="512px" height="512px" viewBox="0 0 24 24" xmlns="http://www.w3.org/2000/svg" fill="#1da1f2" stroke="#1da1f2" stroke-width="0.00024000000000000003">
<g id="SVGRepo_bgCarrier" stroke-width="0"/>
<g id="SVGRepo_tracerCarrier" stroke-linecap="round" stroke-linejoin="round" stroke="#CCCCCC" stroke-width="0.048"/>
<g id="SVGRepo_iconCarrier">
<path d="M19.5 2h-15A1.502 1.502 0 0 0 3 3.5v17A1.502 1.502 0 0 0 4.5 22h15a1.502 1.502 0 0 0 1.5-1.5v-17A1.502 1.502 0 0 0 19.5 2zm.5 18.5a.501.501 0 0 1-.5.5h-15a.501.501 0 0 1-.5-.5v-17a.501.501 0 0 1 .5-.5h15a.501.501 0 0 1 .5.5zM5 9h14V4H5zm1-4h12v3H6zm2 6H6a1 1 0 0 0-1 1v2a1 1 0 0 0 1 1h2a1 1 0 0 0 1-1v-2a1 1 0 0 0-1-1zm0 3H6v-2h2zm5-3h-2a1 1 0 0 0-1 1v2a1 1 0 0 0 1 1h2a1 1 0 0 0 1-1v-2a1 1 0 0 0-1-1zm0 3h-2v-2h2zm0 2h-2a1 1 0 0 0-1 1v2a1 1 0 0 0 1 1h2a1 1 0 0 0 1-1v-2a1 1 0 0 0-1-1zm0 3h-2v-2h2zm-5-3H6a1 1 0 0 0-1 1v2a1 1 0 0 0 1 1h2a1 1 0 0 0 1-1v-2a1 1 0 0 0-1-1zm0 3H6v-2h2zm10-8h-2a1 1 0 0 0-1 1v7a1 1 0 0 0 1 1h2a1 1 0 0 0 1-1v-7a1 1 0 0 0-1-1zm0 8h-2v-7h2z"/>
<path fill="none" d="M0 0h24v24H0z"/>
</g>
</svg>