<svg xmlns="http://www.w3.org/2000/svg" viewBox="0 0 1200 675" role="img" aria-labelledby="title desc">
  <title id="title">Industrial building specifications</title>
  <desc id="desc">A warehouse cross-section highlights clear height, column spacing, dock doors, and utility capacity.</desc>
  <rect width="1200" height="675" rx="28" fill="#f2f6f1"/>
  <path d="M90 548h1020" stroke="#cdd9ce" stroke-width="4"/>
  <path d="M150 267 580 95l430 172v250H150z" fill="#fff" stroke="#214d35" stroke-width="8" stroke-linejoin="round"/>
  <path d="M150 267 580 95l430 172" fill="none" stroke="#2e8b57" stroke-width="13"/>
  <path d="M198 298h760v25H198z" fill="#b8e0b0"/>
  <path d="M252 325v188m220-188v188m220-188v188m220-188v188" stroke="#688b70" stroke-width="8"/>
  <path d="M285 385h120v128H285zm220 0h120v128H505zm220 0h120v128H725z" fill="#e9f1e8" stroke="#214d35" stroke-width="6"/>
  <path d="M325 417h40v42h-40zm220 0h40v42h-40zm220 0h40v42h-40z" fill="#81b887"/>
  <path d="M1060 338v175m-18-157 18-18 18 18m-36 139 18 18 18-18" fill="none" stroke="#3471a2" stroke-width="6"/>
  <text x="1086" y="425" font-family="Arial,sans-serif" font-size="18" fill="#214d35">CLEAR</text><text x="1086" y="449" font-family="Arial,sans-serif" font-size="18" fill="#214d35">HEIGHT</text>
  <path d="M285 574h120m-120-9v18m120-18v18" stroke="#3471a2" stroke-width="5"/>
  <text x="345" y="612" text-anchor="middle" font-family="Arial,sans-serif" font-size="18" fill="#214d35">COLUMN SPACING</text>
  <path d="M850 575h88m-88-9v18m88-18v18" stroke="#3471a2" stroke-width="5"/>
  <text x="894" y="612" text-anchor="middle" font-family="Arial,sans-serif" font-size="18" fill="#214d35">DOOR WIDTH</text>
  <text x="600" y="55" text-anchor="middle" font-family="Arial,sans-serif" font-size="20" font-weight="700" fill="#214d35">VERIFY MEASUREMENTS AND DOCUMENTS, NOT JUST LISTING LABELS</text>
</svg>
